<?xml version="1.0" encoding="utf-8"?>
<!-- Generator: Adobe Illustrator 28.1.0, SVG Export Plug-In . SVG Version: 6.00 Build 0)  -->
<svg version="1.1" id="Livello_1" xmlns="http://www.w3.org/2000/svg" xmlns:xlink="http://www.w3.org/1999/xlink" x="0px" y="0px"
	 viewBox="0 0 793.7 850.4" style="enable-background:new 0 0 793.7 850.4;" xml:space="preserve">
<style type="text/css">
	.st0{fill:#FFFFFF;}
	.st1{fill:#F46137;}
	.st2{fill:#0041DE;}
	.st3{fill:none;}
</style>
<g>
	<polygon class="st2" points="538.4,78.8 538.4,483.7 468.3,524.1 468.3,443.2 398.2,402.7 328,443.2 328,524.2 257.9,483.7 
		257.9,402.7 328,362.2 398.2,321.8 468.3,281.2 468.3,200.2 398.2,240.7 328,281.2 328,281.2 328,281.2 257.9,321.7 257.9,240.7 
		328,200.3 328,200.2 398.2,159.8 468.3,119.3 398.2,78.8 398.2,78.8 328,119.3 328,119.3 258,159.8 257.9,159.8 187.8,200.3 
		187.8,524.1 257.9,564.6 258,564.6 328,605.1 328,605.1 398.2,645.6 398.2,645.6 468.3,605.1 538.4,564.7 608.5,524.2 608.5,38.3 	
		"/>
	<g>
		<rect x="161" y="676.6" class="st3" width="471.6" height="135.5"/>
		<path class="st2" d="M254.9,676.6l-12.1,14.4h-36.8v7.2h45.5l-11.4,13.5h-34.1v20.3h-18.8v-55.5H254.9z"/>
		<path class="st2" d="M343.9,732.2h-25l-13.5-14.7h-28.7v14.7H258v-28.4h52.5c5.8,0,10.3-2.4,10.3-6.2c0-4.3-3.9-6.5-10.3-6.5H258
			l12.2-14.4H309c13.7,0,31.1,4,31.1,19.8c0,8.6-5.9,15.8-15.8,17.6c2.1,1.4,4.3,3.4,8.5,7.3L343.9,732.2z"/>
		<path class="st2" d="M376.1,732.2l11.3-14.3h15.2c3.6,0,7.9,0,10.7,0.2c-1.6-2-4.2-5.4-6.1-8.1l-10.8-14.7L368,732.2h-22.1
			l38.7-50.2c2.5-3.2,6.2-6.2,12.1-6.2c5.6,0,9.3,2.7,11.9,6.2l37.7,50.2H376.1z"/>
		<path class="st2" d="M506.8,730.1l-37-30.5v32.6h-17v-46.1c0-7.4,4.9-10.4,10.2-10.4c2.3,0,4.5,0.5,7.5,3l37,30.5v-32.6h17.1v46
			c0,7.4-4.9,10.5-10.3,10.5C511.9,733.1,509.7,732.6,506.8,730.1z"/>
		<path class="st2" d="M611.8,732.2h-28.3l-18.2-14.6c-6.2-5-9.1-7.4-11.2-9.3c0.1,2.6,0.3,5.3,0.3,8v15.9h-18.8v-55.5h18.8v12.9
			c0,3.4-0.2,6.8-0.4,9.7c2.3-2,5.6-4.8,11.1-9l17.4-13.5h27.1l-23.1,15.9c-8,5.6-11.7,8.1-15.6,10.2c3.4,2.2,8.1,5.2,15.9,11
			L611.8,732.2z"/>
		<path class="st2" d="M275.5,791.8c10.3,0,13.7-2.2,13.7-7.9V762h13.6v21.9c0,12.2-9.1,18.2-27.3,18.2h-16.3l8.8-10.3H275.5z"/>
		<path class="st2" d="M313.5,791.2c4.1,0,7.4,2.2,7.4,5.9c0,3.7-3.3,5.8-7.4,5.8c-4,0-7.3-2.1-7.3-5.8
			C306.2,793.3,309.5,791.2,313.5,791.2z"/>
		<path class="st2" d="M400,791.8l-8.7,10.3h-38.6V762h13.5v29.8H400z"/>
		<path class="st2" d="M420.9,802.2l8.2-10.3h11c2.6,0,5.7,0,7.8,0.1c-1.2-1.4-3-3.9-4.4-5.8l-7.8-10.6L415,802.2h-16l28-36.3
			c1.8-2.3,4.5-4.5,8.7-4.5c4,0,6.7,2,8.6,4.5l27.3,36.3H420.9z"/>
		<path class="st2" d="M532.6,790.5c0,6.7-4,11.7-17.8,11.7h-38.4v-24.4h38.6c2,0,3.8-0.7,3.8-2.7c0-2-1.9-2.6-3.8-2.6h-38.6
			l9.1-10.4h28.9c10.4,0,17.2,3.7,17.2,11.1c0,4.7-2.9,7.4-5.9,8.4C529.5,782.5,532.6,785.7,532.6,790.5z M490.1,786.3v5.5h24.9
			c2.9,0,4.2-1,4.2-2.8c0-1.7-1.2-2.7-4.2-2.7H490.1z"/>
	</g>
</g>
</svg>
